<svg id="svg" version="1.1" xmlns="http://www.w3.org/2000/svg" xmlns:xlink="http://www.w3.org/1999/xlink" width="400" height="375.8139534883721" viewBox="0, 0, 400,375.8139534883721"><g id="svgg"><path id="path0" d="M69.925 269.919 L 69.925 276.304 59.680 276.404 L 49.436 276.504 49.316 277.350 C 49.229 277.962,48.943 278.195,48.282 278.195 C 47.558 278.195,47.368 278.391,47.368 279.135 C 47.368 279.887,47.180 280.075,46.429 280.075 C 45.677 280.075,45.489 280.263,45.489 281.015 C 45.489 281.767,45.301 281.955,44.549 281.955 C 43.809 281.955,43.609 282.146,43.609 282.851 C 43.609 283.406,43.345 283.816,42.914 283.929 C 41.841 284.209,41.729 285.602,41.729 298.684 C 41.729 311.766,41.841 313.159,42.914 313.440 C 43.345 313.552,43.609 313.962,43.609 314.518 C 43.609 315.223,43.809 315.414,44.549 315.414 C 45.301 315.414,45.489 315.602,45.489 316.353 C 45.489 317.105,45.677 317.293,46.429 317.293 C 47.180 317.293,47.368 317.481,47.368 318.233 C 47.368 318.959,47.562 319.173,48.219 319.173 C 48.741 319.173,49.213 319.500,49.441 320.019 L 49.812 320.865 62.500 320.964 L 75.188 321.063 75.188 320.118 C 75.188 319.361,75.375 319.173,76.128 319.173 C 76.880 319.173,77.068 318.985,77.068 318.233 C 77.068 317.481,77.256 317.293,78.008 317.293 L 78.947 317.293 78.947 290.414 L 78.947 263.534 74.436 263.534 L 69.925 263.534 69.925 269.919 M200.000 290.414 L 200.000 317.293 200.940 317.293 C 201.692 317.293,201.880 317.481,201.880 318.233 C 201.880 318.985,202.068 319.173,202.820 319.173 C 203.571 319.173,203.759 319.361,203.759 320.113 C 203.759 320.990,203.885 321.053,205.639 321.053 C 207.233 321.053,207.519 321.161,207.519 321.764 C 207.519 322.852,208.131 322.932,216.384 322.932 L 224.060 322.932 224.059 321.898 L 224.059 320.865 228.759 320.980 L 233.459 321.096 233.459 304.371 L 233.459 287.646 234.305 287.526 C 234.840 287.450,235.193 287.104,235.267 286.583 C 235.340 286.071,235.695 285.716,236.207 285.643 C 236.725 285.570,237.074 285.216,237.149 284.689 C 237.266 283.865,237.371 283.850,243.728 283.749 L 250.188 283.647 250.295 279.793 C 250.455 274.059,250.955 274.400,242.558 274.522 C 235.628 274.623,235.525 274.636,235.408 275.454 C 235.301 276.210,235.049 276.294,232.589 276.394 C 230.112 276.495,229.877 276.574,229.767 277.350 C 229.666 278.064,229.416 278.195,228.160 278.195 C 226.406 278.195,225.940 278.984,225.940 281.953 C 225.940 283.564,225.839 283.797,225.094 283.902 L 224.248 284.023 224.150 298.778 L 224.051 313.534 217.706 313.534 L 211.360 313.534 211.124 312.594 C 210.972 311.987,210.624 311.654,210.143 311.654 C 209.512 311.654,209.398 311.398,209.398 309.970 C 209.398 308.486,209.286 308.257,208.459 308.049 L 207.519 307.813 207.519 295.824 L 207.519 283.835 213.910 283.835 L 220.301 283.835 220.301 280.075 L 220.301 276.316 213.910 276.316 L 207.519 276.316 207.519 269.925 L 207.519 263.534 203.759 263.534 L 200.000 263.534 200.000 290.414 M80.827 279.481 C 80.827 283.121,81.015 283.835,81.975 283.835 C 82.532 283.835,82.688 284.179,82.780 285.620 C 82.878 287.144,83.019 287.424,83.741 287.526 C 84.525 287.637,84.586 287.836,84.586 290.245 C 84.586 292.690,84.641 292.856,85.510 293.075 C 86.360 293.288,86.442 293.506,86.544 295.807 C 86.644 298.075,86.733 298.319,87.500 298.428 C 88.247 298.534,88.346 298.766,88.346 300.402 C 88.346 302.129,88.410 302.256,89.286 302.256 C 90.205 302.256,90.226 302.318,90.226 305.075 C 90.226 307.832,90.246 307.895,91.165 307.895 C 92.043 307.895,92.105 308.020,92.105 309.774 C 92.105 311.529,92.168 311.654,93.045 311.654 C 93.964 311.654,93.985 311.717,93.985 314.474 C 93.985 317.231,94.006 317.293,94.925 317.293 C 96.318 317.293,96.409 322.803,95.019 323.000 C 94.243 323.110,94.164 323.345,94.062 325.846 C 93.956 328.473,93.918 328.571,93.012 328.571 C 92.086 328.571,92.074 328.611,92.183 331.297 L 92.293 334.023 96.805 334.023 L 101.316 334.023 101.435 332.989 C 101.516 332.286,101.771 331.955,102.234 331.955 C 102.983 331.955,103.383 330.630,103.383 328.148 C 103.383 326.970,103.519 326.692,104.095 326.692 C 105.020 326.692,105.263 325.987,105.263 323.304 C 105.263 321.310,105.342 321.094,106.109 320.985 C 106.831 320.882,106.972 320.603,107.069 319.079 C 107.162 317.638,107.317 317.293,107.875 317.293 C 108.781 317.293,109.023 316.575,109.023 313.879 C 109.023 311.905,109.107 311.654,109.774 311.654 C 110.425 311.654,110.526 311.404,110.526 309.801 C 110.526 308.165,110.626 307.933,111.372 307.827 C 112.148 307.717,112.227 307.482,112.328 304.981 C 112.434 302.368,112.477 302.256,113.362 302.256 C 114.255 302.256,114.286 302.168,114.286 299.624 C 114.286 297.068,114.313 296.992,115.226 296.992 C 116.100 296.992,116.165 296.864,116.165 295.154 C 116.165 293.506,116.263 293.290,117.105 293.079 C 117.995 292.855,118.045 292.704,118.045 290.218 C 118.045 287.670,118.072 287.594,118.985 287.594 C 119.862 287.594,119.925 287.469,119.925 285.714 C 119.925 284.680,120.080 283.835,120.270 283.835 C 120.460 283.835,120.883 283.732,121.210 283.606 C 121.722 283.410,121.805 283.801,121.805 286.426 C 121.805 289.426,121.790 289.474,120.865 289.474 L 119.925 289.474 119.925 305.476 C 119.925 324.674,119.417 322.932,125.013 322.932 L 129.323 322.932 129.323 307.184 L 129.323 291.435 130.263 291.199 C 131.091 290.991,131.203 290.762,131.203 289.279 C 131.203 287.732,131.280 287.594,132.143 287.594 C 132.889 287.594,133.083 287.405,133.083 286.675 C 133.083 285.845,133.256 285.744,134.868 285.641 C 136.392 285.543,136.672 285.402,136.774 284.680 C 136.886 283.891,137.078 283.835,139.662 283.835 C 142.245 283.835,142.437 283.891,142.549 284.680 C 142.652 285.402,142.931 285.543,144.455 285.641 C 145.875 285.732,146.241 285.893,146.241 286.426 C 146.241 286.795,146.664 287.290,147.180 287.526 C 147.732 287.777,148.120 288.268,148.120 288.714 C 148.120 289.223,148.368 289.474,148.872 289.474 C 149.612 289.474,149.624 289.726,149.630 305.733 C 149.633 314.676,149.773 322.210,149.942 322.475 C 150.169 322.833,151.360 322.930,154.541 322.851 L 158.835 322.744 159.042 318.609 C 159.156 316.335,159.283 314.685,159.324 314.944 C 159.365 315.202,159.727 315.414,160.129 315.414 C 160.719 315.414,160.881 315.720,160.975 317.011 C 161.061 318.203,161.289 318.697,161.874 318.953 C 162.305 319.143,162.812 319.650,163.002 320.081 C 163.309 320.781,163.715 320.876,166.823 320.973 C 170.239 321.079,170.301 321.097,170.301 322.007 L 170.301 322.932 178.571 322.932 L 186.842 322.932 186.842 321.992 C 186.842 321.074,186.905 321.053,189.662 321.053 C 192.419 321.053,192.481 321.032,192.481 320.113 C 192.481 319.361,192.669 319.173,193.421 319.173 C 194.173 319.173,194.361 318.985,194.361 318.233 C 194.361 317.481,194.549 317.293,195.301 317.293 C 196.176 317.293,196.241 317.166,196.241 315.440 C 196.241 313.804,196.340 313.572,197.086 313.466 L 197.932 313.346 197.932 300.564 L 197.932 287.782 197.102 287.664 C 196.347 287.556,196.263 287.304,196.163 284.844 C 196.062 282.368,195.982 282.133,195.207 282.023 C 194.595 281.936,194.361 281.650,194.361 280.989 C 194.361 280.265,194.166 280.075,193.421 280.075 C 192.669 280.075,192.481 279.887,192.481 279.135 C 192.481 278.258,192.356 278.195,190.602 278.195 C 188.847 278.195,188.722 278.133,188.722 277.256 L 188.722 276.316 176.692 276.316 L 164.662 276.316 164.662 280.075 L 164.662 283.835 173.120 283.835 L 181.579 283.835 181.579 284.774 C 181.579 285.636,181.719 285.714,183.245 285.714 C 184.686 285.714,184.926 285.828,185.030 286.560 C 185.107 287.104,185.453 287.449,185.996 287.526 C 186.658 287.620,186.842 287.891,186.842 288.773 C 186.842 290.178,187.447 291.353,188.171 291.353 C 188.508 291.353,188.722 291.718,188.722 292.293 L 188.722 293.233 179.511 293.233 L 170.301 293.233 170.301 294.159 C 170.301 295.073,170.251 295.087,166.635 295.193 C 163.190 295.294,162.963 295.350,162.853 296.123 C 162.780 296.636,162.426 296.990,161.913 297.063 C 161.218 297.162,161.072 297.458,160.976 298.966 C 160.883 300.416,160.729 300.752,160.161 300.752 C 159.776 300.752,159.376 300.963,159.272 301.222 C 159.167 301.480,159.069 298.097,159.052 293.703 L 159.023 285.714 158.083 285.714 C 157.206 285.714,157.143 285.589,157.143 283.835 C 157.143 282.080,157.080 281.955,156.203 281.955 C 155.451 281.955,155.263 281.767,155.263 281.015 C 155.263 280.263,155.075 280.075,154.323 280.075 C 153.571 280.075,153.383 279.887,153.383 279.135 C 153.383 278.383,153.195 278.195,152.444 278.195 C 151.772 278.195,151.504 277.992,151.504 277.484 C 151.504 276.370,150.957 276.316,139.819 276.316 L 129.323 276.316 129.323 277.235 C 129.323 278.065,129.150 278.165,127.538 278.269 C 126.030 278.366,125.734 278.512,125.635 279.206 C 125.562 279.719,125.207 280.073,124.695 280.146 C 124.211 280.215,123.827 280.572,123.764 281.015 C 123.704 281.429,123.239 281.962,122.730 282.201 L 121.805 282.636 121.805 279.464 L 121.805 276.293 117.199 276.398 L 112.594 276.504 112.479 278.289 C 112.385 279.757,112.237 280.075,111.646 280.075 C 111.068 280.075,110.879 280.442,110.679 281.955 C 110.480 283.452,110.286 283.835,109.726 283.835 C 109.101 283.835,109.023 284.150,109.023 286.654 C 109.023 289.411,109.002 289.474,108.083 289.474 C 107.207 289.474,107.143 289.601,107.143 291.327 C 107.143 292.963,107.044 293.195,106.297 293.301 C 105.521 293.411,105.442 293.646,105.341 296.147 C 105.235 298.760,105.192 298.872,104.307 298.872 C 103.416 298.872,103.383 298.963,103.383 301.457 C 103.383 303.998,103.365 304.045,102.312 304.256 C 100.074 304.703,99.668 304.307,99.546 301.558 C 99.446 299.293,99.357 299.049,98.590 298.940 C 97.844 298.834,97.744 298.602,97.744 296.966 C 97.744 295.249,97.677 295.113,96.821 295.113 C 95.935 295.113,95.893 295.001,95.787 292.387 C 95.686 289.903,95.603 289.651,94.847 289.544 C 94.100 289.437,94.007 289.177,93.908 286.912 C 93.811 284.721,93.688 284.351,92.951 284.027 C 92.244 283.717,92.105 283.362,92.105 281.866 C 92.105 280.206,92.036 280.075,91.165 280.075 C 90.288 280.075,90.226 279.950,90.226 278.195 L 90.226 276.316 85.526 276.316 L 80.827 276.316 80.827 279.481 M254.135 280.070 L 254.135 283.835 262.380 283.835 L 270.624 283.835 270.745 284.680 C 270.847 285.402,271.127 285.543,272.650 285.641 C 274.263 285.744,274.436 285.845,274.436 286.675 C 274.436 287.405,274.630 287.594,275.376 287.594 C 276.289 287.594,276.316 287.669,276.316 290.226 C 276.316 292.036,276.462 292.883,276.786 292.941 C 277.044 292.987,273.280 293.113,268.421 293.223 C 259.614 293.420,259.586 293.424,259.466 294.267 C 259.351 295.076,259.191 295.113,255.801 295.113 C 252.270 295.113,252.256 295.117,252.256 296.053 C 252.256 296.805,252.068 296.992,251.316 296.992 C 250.439 296.992,250.376 297.118,250.376 298.872 C 250.376 300.627,250.313 300.752,249.436 300.752 L 248.496 300.752 248.496 308.083 L 248.496 315.414 249.436 315.414 C 250.313 315.414,250.376 315.539,250.376 317.293 C 250.376 319.048,250.439 319.173,251.316 319.173 C 252.068 319.173,252.256 319.361,252.256 320.113 C 252.256 321.031,252.320 321.053,255.049 321.053 C 257.660 321.053,257.850 321.108,257.963 321.898 L 258.083 322.744 267.105 322.744 C 276.124 322.744,276.128 322.744,276.246 321.914 C 276.353 321.159,276.605 321.075,279.065 320.975 C 281.542 320.874,281.777 320.794,281.887 320.019 C 281.974 319.407,282.260 319.173,282.921 319.173 C 283.638 319.173,283.835 318.976,283.835 318.259 C 283.835 317.598,284.068 317.312,284.680 317.225 L 285.526 317.105 285.526 300.564 L 285.526 284.023 284.700 283.905 C 284.003 283.806,283.856 283.512,283.760 282.025 C 283.666 280.562,283.512 280.244,282.852 280.150 C 282.415 280.087,281.869 279.622,281.639 279.116 C 281.297 278.365,280.945 278.195,279.733 278.195 C 278.479 278.195,278.229 278.064,278.128 277.350 L 278.008 276.504 266.071 276.404 L 254.135 276.305 254.135 280.070 M295.055 277.232 C 294.723 277.962,294.307 278.181,293.087 278.270 C 291.826 278.363,291.520 278.535,291.424 279.206 C 291.351 279.719,290.997 280.073,290.484 280.146 C 289.790 280.245,289.644 280.541,289.547 282.049 C 289.444 283.661,289.343 283.835,288.513 283.835 L 287.594 283.835 287.594 298.684 L 287.594 313.534 288.513 313.534 C 289.343 313.534,289.444 313.707,289.547 315.320 C 289.644 316.827,289.790 317.123,290.484 317.222 C 290.997 317.295,291.351 317.650,291.424 318.162 C 291.521 318.839,291.825 319.006,293.137 319.100 C 294.470 319.197,294.771 319.367,294.964 320.134 L 295.194 321.053 308.123 321.053 L 321.053 321.053 321.053 318.097 C 321.053 315.148,321.054 315.142,321.992 315.322 C 322.682 315.453,322.932 315.740,322.932 316.397 C 322.932 317.102,323.133 317.293,323.872 317.293 C 324.624 317.293,324.812 317.481,324.812 318.233 C 324.812 319.096,324.950 319.173,326.497 319.173 C 327.980 319.173,328.209 319.285,328.417 320.113 L 328.653 321.053 340.642 321.053 L 352.632 321.053 352.632 317.293 L 352.632 313.534 344.199 313.534 L 335.767 313.534 335.646 312.688 C 335.544 311.968,335.264 311.825,333.764 311.728 C 332.278 311.633,331.984 311.486,331.884 310.789 C 331.810 310.265,331.458 309.918,330.921 309.842 C 330.190 309.738,330.075 309.497,330.075 308.064 C 330.075 306.608,329.960 306.376,329.135 306.169 C 328.293 305.958,328.195 305.743,328.195 304.095 L 328.195 302.256 343.233 302.256 L 358.271 302.256 358.271 294.580 C 358.271 286.355,358.188 285.714,357.123 285.714 C 356.566 285.714,356.410 285.370,356.318 283.929 C 356.221 282.421,356.075 282.125,355.380 282.026 C 354.868 281.953,354.513 281.598,354.440 281.086 C 354.367 280.573,354.013 280.219,353.501 280.146 C 352.988 280.073,352.634 279.719,352.561 279.206 C 352.491 278.717,352.134 278.339,351.680 278.274 C 351.260 278.214,350.753 277.791,350.552 277.334 C 350.190 276.509,350.124 276.503,339.380 276.404 L 328.571 276.304 328.571 277.250 C 328.571 278.134,328.449 278.195,326.692 278.195 C 324.937 278.195,324.812 278.258,324.812 279.135 C 324.812 279.887,324.624 280.075,323.872 280.075 C 323.133 280.075,322.932 280.266,322.932 280.971 C 322.932 281.625,322.682 281.915,322.007 282.044 C 321.097 282.218,321.081 282.174,320.973 279.362 L 320.865 276.504 308.171 276.405 L 295.477 276.306 295.055 277.232 M321.053 285.500 C 321.053 287.331,320.965 287.554,320.207 287.662 L 319.361 287.782 319.361 298.684 L 319.361 309.586 320.207 309.707 C 320.960 309.814,321.053 310.041,321.053 311.774 L 321.053 313.722 311.654 313.615 L 302.256 313.509 302.256 312.581 C 302.256 311.719,302.124 311.654,300.376 311.654 C 298.622 311.654,298.496 311.591,298.496 310.714 C 298.496 309.962,298.308 309.774,297.556 309.774 L 296.617 309.774 296.617 298.684 L 296.617 287.594 297.556 287.594 C 298.308 287.594,298.496 287.406,298.496 286.654 C 298.496 285.777,298.622 285.714,300.376 285.714 C 302.127 285.714,302.256 285.650,302.256 284.781 L 302.256 283.848 311.560 283.740 C 316.678 283.681,320.907 283.594,320.959 283.546 C 321.010 283.498,321.053 284.377,321.053 285.500 M69.925 297.744 L 69.925 311.654 68.985 311.654 C 68.233 311.654,68.045 311.842,68.045 312.594 L 68.045 313.534 62.432 313.534 C 56.898 313.534,56.818 313.522,56.699 312.688 C 56.622 312.144,56.277 311.799,55.733 311.722 C 55.268 311.656,54.887 311.356,54.887 311.056 C 54.887 310.756,54.464 310.317,53.947 310.082 C 53.430 309.846,53.008 309.423,53.008 309.141 C 53.008 308.859,52.585 308.467,52.068 308.271 L 51.128 307.913 51.128 298.783 C 51.128 289.674,51.130 289.651,51.974 289.281 C 52.627 288.994,52.846 288.546,52.935 287.312 L 53.051 285.714 54.909 285.714 C 56.640 285.714,56.767 285.650,56.767 284.774 L 56.767 283.835 63.346 283.835 L 69.925 283.835 69.925 297.744 M341.546 284.680 C 341.830 285.328,342.282 285.553,343.476 285.640 C 344.670 285.727,345.082 285.932,345.234 286.514 C 345.343 286.932,345.774 287.363,346.192 287.472 C 346.609 287.581,347.002 288.034,347.065 288.478 C 347.137 288.984,347.497 289.331,348.026 289.406 C 348.773 289.512,348.872 289.744,348.872 291.380 L 348.872 293.233 338.534 293.233 L 328.195 293.233 328.195 292.319 C 328.195 291.658,328.429 291.372,329.041 291.286 C 329.763 291.183,329.904 290.904,330.002 289.380 C 330.105 287.767,330.206 287.594,331.036 287.594 C 331.760 287.594,331.955 287.399,331.955 286.675 C 331.955 285.845,332.128 285.744,333.741 285.641 C 335.264 285.543,335.544 285.402,335.646 284.680 C 335.758 283.893,335.953 283.835,338.471 283.835 C 340.915 283.835,341.211 283.916,341.546 284.680 M188.722 306.015 C 188.722 309.512,188.670 309.774,187.977 309.774 C 187.496 309.774,187.149 310.107,186.996 310.714 C 186.867 311.231,186.521 311.654,186.228 311.654 C 185.935 311.654,185.535 312.077,185.338 312.594 L 184.981 313.534 178.606 313.534 C 172.617 313.534,172.217 313.489,171.999 312.801 C 171.871 312.398,171.445 311.967,171.053 311.842 C 170.660 311.718,170.237 311.295,170.113 310.902 C 169.988 310.510,169.557 310.084,169.154 309.956 C 168.081 309.616,168.062 306.015,169.133 306.015 C 169.969 306.015,170.301 305.312,170.301 303.541 L 170.301 302.256 179.511 302.256 L 188.722 302.256 188.722 306.015 M278.195 305.049 C 278.195 307.660,278.140 307.850,277.350 307.963 C 276.630 308.065,276.487 308.345,276.390 309.845 C 276.294 311.331,276.147 311.625,275.450 311.725 C 274.926 311.799,274.580 312.151,274.504 312.688 C 274.384 313.533,274.375 313.534,266.891 313.534 L 259.398 313.534 259.398 312.594 C 259.398 311.842,259.211 311.654,258.459 311.654 L 257.519 311.654 257.519 307.895 L 257.519 304.135 258.459 304.135 C 259.211 304.135,259.398 303.947,259.398 303.195 L 259.398 302.256 268.797 302.256 L 278.195 302.256 278.195 305.049 " stroke="none" fill="#fcfcfc" fill-rule="evenodd"></path><path id="path1" d="M154.135 99.298 C 152.378 99.467,149.840 99.769,148.496 99.969 C 147.152 100.169,143.515 100.510,140.414 100.726 C 137.312 100.943,133.675 101.374,132.331 101.684 C 130.987 101.995,128.240 102.409,126.226 102.604 C 124.002 102.819,122.232 103.193,121.715 103.556 C 121.247 103.885,120.262 104.317,119.526 104.516 C 118.076 104.908,113.534 108.805,113.534 109.658 C 113.534 109.942,113.273 110.274,112.954 110.397 C 112.635 110.519,112.039 111.275,111.630 112.076 C 111.069 113.177,110.659 113.534,109.955 113.534 L 109.023 113.534 109.023 132.122 C 109.023 149.751,109.058 150.735,109.715 151.200 C 110.351 151.652,110.430 152.626,110.680 163.158 C 110.830 169.464,110.970 174.836,110.990 175.094 C 111.011 175.352,111.338 175.564,111.717 175.564 C 112.362 175.564,112.406 176.042,112.406 183.058 C 112.406 190.575,112.666 192.481,113.690 192.481 C 114.150 192.481,114.259 193.658,114.357 199.638 C 114.490 207.808,114.359 207.504,117.763 207.513 C 119.820 207.519,119.925 207.473,119.925 206.579 C 119.925 205.827,120.113 205.639,120.865 205.639 C 121.617 205.639,121.805 205.451,121.805 204.699 C 121.805 203.947,121.992 203.759,122.744 203.759 C 123.496 203.759,123.684 203.571,123.684 202.820 C 123.684 202.032,123.862 201.880,124.781 201.880 C 126.263 201.880,127.068 201.532,127.068 200.892 C 127.068 200.599,127.491 200.167,128.008 199.932 C 128.524 199.696,128.947 199.273,128.947 198.992 C 128.947 198.710,129.370 198.287,129.887 198.052 C 130.404 197.816,130.827 197.393,130.827 197.112 C 130.827 196.831,131.250 196.408,131.767 196.172 C 132.284 195.937,132.707 195.514,132.707 195.232 C 132.707 194.951,133.130 194.528,133.647 194.292 C 134.164 194.057,134.586 193.553,134.586 193.173 C 134.586 192.691,134.864 192.481,135.500 192.481 C 136.161 192.481,136.447 192.248,136.534 191.635 C 136.611 191.092,136.956 190.747,137.499 190.669 C 138.027 190.595,138.431 190.206,138.574 189.636 C 138.712 189.086,139.076 188.722,139.489 188.722 C 139.866 188.722,140.280 188.392,140.407 187.989 C 140.535 187.586,140.961 187.155,141.353 187.030 C 141.746 186.906,142.169 186.483,142.293 186.090 C 142.418 185.698,142.841 185.275,143.233 185.150 C 143.625 185.026,144.045 184.613,144.166 184.232 C 144.287 183.851,144.719 183.453,145.125 183.346 C 145.553 183.235,145.865 182.833,145.865 182.392 C 145.865 181.889,146.152 181.591,146.711 181.511 C 147.246 181.435,147.599 181.089,147.673 180.568 C 147.746 180.056,148.101 179.701,148.613 179.628 C 149.126 179.555,149.480 179.201,149.553 178.689 C 149.626 178.176,149.980 177.822,150.493 177.749 C 151.014 177.675,151.360 177.321,151.436 176.786 C 151.523 176.173,151.808 175.940,152.470 175.940 C 153.194 175.940,153.383 175.745,153.383 175.000 C 153.383 174.248,153.571 174.060,154.323 174.060 C 155.075 174.060,155.263 173.872,155.263 173.120 C 155.263 172.368,155.451 172.180,156.203 172.180 C 156.955 172.180,157.143 171.992,157.143 171.241 C 157.143 170.489,157.331 170.301,158.083 170.301 C 158.835 170.301,159.023 170.113,159.023 169.361 C 159.023 168.609,159.211 168.421,159.962 168.421 C 160.714 168.421,160.902 168.233,160.902 167.481 C 160.902 166.729,161.090 166.541,161.842 166.541 C 162.594 166.541,162.782 166.353,162.782 165.602 C 162.782 164.850,162.970 164.662,163.722 164.662 L 164.662 164.662 164.662 139.500 L 164.662 114.338 165.508 114.218 C 166.676 114.052,167.055 100.178,165.914 99.343 C 165.189 98.813,159.419 98.791,154.135 99.298 " stroke="none" fill="#188cf4" fill-rule="evenodd"></path><path id="path2" d="M110.621 168.985 C 110.625 169.812,110.702 170.106,110.792 169.638 C 110.882 169.171,110.879 168.494,110.785 168.135 C 110.691 167.775,110.617 168.158,110.621 168.985 M166.541 169.361 C 166.541 170.113,166.353 170.301,165.602 170.301 C 164.850 170.301,164.662 170.489,164.662 171.241 C 164.662 171.992,164.474 172.180,163.722 172.180 C 162.970 172.180,162.782 172.368,162.782 173.120 C 162.782 173.872,162.594 174.060,161.842 174.060 C 161.090 174.060,160.902 174.248,160.902 175.000 C 160.902 175.752,160.714 175.940,159.962 175.940 C 159.211 175.940,159.023 176.128,159.023 176.880 C 159.023 177.632,158.835 177.820,158.083 177.820 C 157.331 177.820,157.143 178.008,157.143 178.759 C 157.143 179.511,156.955 179.699,156.203 179.699 C 155.451 179.699,155.263 179.887,155.263 180.639 C 155.263 181.391,155.075 181.579,154.323 181.579 C 153.571 181.579,153.383 181.767,153.383 182.519 C 153.383 183.271,153.195 183.459,152.444 183.459 C 151.692 183.459,151.504 183.647,151.504 184.398 C 151.504 185.150,151.316 185.338,150.564 185.338 C 149.812 185.338,149.624 185.526,149.624 186.278 C 149.624 186.971,149.424 187.218,148.863 187.218 C 148.397 187.218,147.963 187.582,147.744 188.158 C 147.548 188.675,147.129 189.098,146.814 189.098 C 146.499 189.098,146.241 189.356,146.241 189.671 C 146.241 189.986,145.818 190.405,145.301 190.602 C 144.746 190.812,144.361 191.256,144.361 191.685 C 144.361 192.270,144.000 192.460,142.503 192.666 C 140.982 192.875,140.624 193.069,140.529 193.735 C 140.457 194.247,140.100 194.593,139.568 194.669 C 139.027 194.746,138.722 195.049,138.722 195.508 C 138.722 195.961,138.374 196.313,137.782 196.462 C 137.198 196.609,136.842 196.965,136.842 197.402 C 136.842 197.839,136.486 198.195,135.902 198.342 C 135.330 198.486,134.962 198.846,134.962 199.263 C 134.962 199.687,134.640 199.993,134.117 200.068 C 133.581 200.144,133.228 200.490,133.154 201.011 C 133.081 201.523,132.726 201.878,132.214 201.951 C 131.701 202.024,131.347 202.378,131.274 202.890 C 131.201 203.403,130.847 203.757,130.334 203.830 C 129.821 203.903,129.467 204.258,129.394 204.770 C 129.321 205.283,128.967 205.637,128.454 205.710 C 127.942 205.783,127.587 206.137,127.514 206.650 C 127.442 207.162,127.087 207.517,126.575 207.590 C 126.054 207.664,125.708 208.017,125.632 208.553 C 125.545 209.165,125.259 209.398,124.598 209.398 C 123.881 209.398,123.684 209.595,123.684 210.312 C 123.684 210.974,123.451 211.259,122.838 211.346 C 122.104 211.450,121.992 211.690,121.992 213.158 L 121.992 214.850 123.755 214.963 C 125.241 215.059,125.535 215.206,125.634 215.903 C 125.749 216.706,125.909 216.732,131.272 216.833 C 136.655 216.935,136.795 216.958,136.911 217.773 C 137.027 218.587,137.173 218.612,142.400 218.713 C 147.725 218.817,147.774 218.826,148.124 219.747 L 148.478 220.677 154.664 220.677 C 160.793 220.677,160.851 220.684,160.970 221.523 C 161.089 222.363,161.137 222.369,168.490 222.470 C 175.821 222.571,175.891 222.580,176.009 223.410 C 176.128 224.247,176.137 224.248,185.244 224.349 C 194.049 224.446,194.361 224.475,194.361 225.195 C 194.361 225.921,194.645 225.940,205.451 225.940 C 216.050 225.940,216.541 225.909,216.541 225.234 C 216.541 224.408,217.113 223.883,218.421 223.505 C 223.266 222.104,228.954 213.789,228.946 208.117 C 228.945 207.478,229.353 204.840,229.854 202.256 C 230.354 199.671,230.953 195.969,231.185 194.029 C 231.416 192.089,231.749 190.228,231.925 189.894 C 232.100 189.559,232.444 186.917,232.688 184.023 C 232.932 181.128,233.374 177.692,233.671 176.386 C 234.297 173.634,234.368 170.763,233.844 169.385 C 233.291 167.930,229.699 167.909,229.699 169.361 L 229.699 170.301 209.211 170.301 L 188.722 170.301 188.722 169.361 L 188.722 168.421 177.632 168.421 L 166.541 168.421 166.541 169.361 " stroke="none" fill="#6c2cab" fill-rule="evenodd"></path><path id="path3" d="M174.906 42.011 C 174.371 42.104,174.060 42.425,174.060 42.883 C 174.060 43.598,173.775 43.690,171.517 43.706 C 170.949 43.710,170.594 43.994,170.453 44.559 C 170.255 45.346,169.134 45.860,167.293 46.007 C 166.943 46.036,166.763 46.372,166.819 46.897 C 166.868 47.361,166.783 47.724,166.631 47.702 C 165.813 47.587,164.662 48.294,164.662 48.912 C 164.662 49.417,164.424 49.590,163.817 49.526 C 163.193 49.460,162.941 49.658,162.851 50.282 C 162.784 50.747,162.572 51.149,162.380 51.175 C 162.187 51.201,161.835 51.243,161.596 51.269 C 161.357 51.295,161.116 51.627,161.060 52.008 C 160.934 52.868,160.767 53.039,159.934 53.161 C 159.571 53.214,159.229 53.555,159.176 53.919 C 159.054 54.752,158.884 54.919,158.023 55.047 C 157.586 55.112,157.347 55.441,157.374 55.940 C 157.406 56.519,157.131 56.792,156.340 56.966 C 155.615 57.125,155.263 57.436,155.263 57.917 C 155.263 58.366,154.914 58.720,154.323 58.868 C 153.760 59.009,153.383 59.373,153.383 59.774 C 153.383 60.176,153.007 60.539,152.444 60.681 C 151.860 60.827,151.504 61.183,151.504 61.621 C 151.504 62.064,151.144 62.415,150.530 62.569 C 149.869 62.735,149.625 62.994,149.771 63.374 C 149.909 63.735,149.666 64.055,149.085 64.276 C 148.590 64.465,148.080 64.948,147.952 65.351 C 147.824 65.754,147.387 66.171,146.980 66.278 C 146.542 66.392,146.241 66.792,146.241 67.258 C 146.241 67.847,146.004 68.045,145.301 68.045 C 144.549 68.045,144.361 68.233,144.361 68.985 C 144.361 69.737,144.173 69.925,143.421 69.925 C 142.669 69.925,142.481 70.113,142.481 70.865 C 142.481 71.617,142.293 71.805,141.541 71.805 C 140.789 71.805,140.602 71.992,140.602 72.744 C 140.602 73.568,140.439 73.684,139.286 73.684 C 138.487 73.684,137.968 73.869,137.964 74.154 C 137.960 74.467,137.837 74.436,137.594 74.060 C 137.394 73.750,137.206 73.623,137.177 73.778 C 137.148 73.933,137.082 74.229,137.030 74.436 C 136.978 74.643,136.915 74.969,136.889 75.162 C 136.863 75.354,136.461 75.566,135.996 75.632 C 135.437 75.711,135.153 76.007,135.159 76.504 C 135.164 76.917,134.965 77.467,134.716 77.726 C 134.153 78.311,133.699 78.342,134.053 77.771 C 134.212 77.513,134.110 77.414,133.793 77.520 C 133.506 77.616,133.275 78.018,133.280 78.415 C 133.285 78.811,133.085 79.347,132.837 79.605 C 132.273 80.191,131.820 80.222,132.173 79.650 C 132.333 79.391,132.232 79.297,131.913 79.409 C 131.626 79.510,131.419 79.897,131.453 80.268 C 131.487 80.640,131.288 81.172,131.010 81.450 C 130.396 82.064,129.931 82.116,130.293 81.530 C 130.454 81.271,130.352 81.177,130.034 81.290 C 129.746 81.391,129.554 81.847,129.605 82.304 C 129.682 82.978,129.559 83.089,128.947 82.895 C 128.499 82.753,128.195 82.827,128.195 83.080 C 128.195 83.312,128.038 83.406,127.846 83.287 C 127.654 83.169,127.443 83.455,127.377 83.923 C 127.297 84.483,126.999 84.774,126.505 84.774 C 126.092 84.774,125.732 84.986,125.706 85.244 C 125.679 85.503,125.637 85.872,125.611 86.064 C 125.585 86.256,125.199 86.468,124.752 86.534 C 124.306 86.600,123.895 86.966,123.840 87.346 C 123.716 88.212,123.551 88.377,122.685 88.504 C 122.304 88.560,121.971 88.801,121.945 89.040 C 121.920 89.278,121.877 89.602,121.852 89.759 C 121.826 89.916,121.448 90.267,121.013 90.539 C 120.358 90.948,120.271 90.947,120.505 90.535 C 120.698 90.195,120.662 90.157,120.392 90.414 C 120.175 90.620,119.937 91.128,119.863 91.541 C 119.785 91.979,119.378 92.343,118.887 92.413 C 118.367 92.488,118.045 92.795,118.045 93.218 C 118.045 93.636,117.678 93.996,117.105 94.139 C 116.502 94.291,116.165 94.640,116.165 95.113 C 116.165 95.583,115.830 95.935,115.238 96.083 C 114.728 96.211,114.325 96.426,114.343 96.560 C 114.439 97.296,114.192 97.667,113.346 98.052 C 112.829 98.287,112.406 98.726,112.406 99.027 C 112.406 99.327,112.086 99.675,111.695 99.799 C 111.198 99.957,110.909 100.525,110.735 101.685 C 110.558 102.866,110.274 103.413,109.754 103.578 C 109.111 103.782,109.023 104.167,109.023 106.770 L 109.023 109.729 110.056 109.607 C 110.625 109.539,111.471 109.465,111.936 109.441 C 112.418 109.417,112.782 109.156,112.782 108.835 C 112.782 108.524,113.501 107.586,114.380 106.749 C 115.258 105.912,116.322 104.897,116.743 104.493 C 117.163 104.090,117.775 103.759,118.102 103.759 C 118.428 103.759,119.142 103.408,119.688 102.979 C 120.293 102.503,121.660 102.060,123.190 101.843 C 124.570 101.648,126.472 101.216,127.417 100.885 C 128.588 100.474,130.991 100.225,134.962 100.102 C 138.684 99.987,141.061 99.752,141.541 99.451 C 142.650 98.757,145.845 98.442,155.075 98.117 C 159.624 97.957,163.808 97.704,164.373 97.555 C 165.259 97.321,165.491 97.443,166.065 98.451 L 166.729 99.619 193.614 99.622 L 220.498 99.624 220.870 100.470 C 221.532 101.980,231.579 101.876,231.579 100.359 C 231.579 99.711,232.173 99.421,233.177 99.580 C 233.332 99.604,233.459 99.201,233.459 98.684 C 233.459 97.932,233.647 97.744,234.398 97.744 C 235.150 97.744,235.338 97.556,235.338 96.805 C 235.338 96.053,235.526 95.865,236.278 95.865 C 237.030 95.865,237.218 95.677,237.218 94.925 C 237.218 94.173,237.406 93.985,238.158 93.985 C 238.910 93.985,239.098 93.797,239.098 93.045 C 239.098 92.293,239.286 92.105,240.038 92.105 C 240.776 92.105,240.977 91.914,240.977 91.212 C 240.977 90.333,242.507 89.614,243.929 89.825 C 244.208 89.866,244.348 89.757,244.240 89.582 C 244.132 89.408,244.365 88.846,244.758 88.335 C 245.151 87.824,245.476 87.627,245.480 87.898 C 245.485 88.169,245.647 88.292,245.842 88.172 C 246.036 88.052,246.136 87.650,246.064 87.279 C 245.993 86.907,246.257 86.402,246.651 86.156 C 247.131 85.856,247.368 85.841,247.368 86.109 C 247.368 86.330,247.530 86.411,247.728 86.288 C 247.926 86.166,247.989 85.810,247.869 85.496 C 247.613 84.829,248.799 83.830,249.519 84.106 C 249.848 84.233,249.930 84.090,249.769 83.670 C 249.499 82.966,250.632 81.933,251.367 82.214 C 251.667 82.330,251.757 82.131,251.628 81.637 C 251.469 81.031,251.639 80.860,252.501 80.762 C 253.166 80.686,253.708 80.327,253.933 79.816 C 254.131 79.364,254.596 78.914,254.966 78.818 C 255.336 78.721,255.639 78.299,255.639 77.881 C 255.639 77.378,255.926 77.079,256.485 77.000 C 257.029 76.923,257.374 76.577,257.451 76.034 C 257.530 75.475,257.829 75.188,258.332 75.188 C 258.764 75.188,259.174 74.878,259.280 74.471 C 259.384 74.076,259.790 73.669,260.184 73.566 C 260.578 73.463,261.047 72.983,261.226 72.500 C 261.409 72.005,261.861 71.620,262.260 71.619 C 262.700 71.617,263.014 71.308,263.085 70.806 C 263.156 70.313,263.560 69.905,264.119 69.765 C 264.703 69.619,265.038 69.266,265.038 68.797 C 265.038 68.324,265.374 67.975,265.977 67.824 C 266.561 67.677,266.917 67.321,266.917 66.884 C 266.917 66.446,267.273 66.090,267.857 65.944 C 268.420 65.803,268.797 65.439,268.797 65.038 C 268.797 64.636,269.174 64.273,269.737 64.131 C 270.319 63.985,270.677 63.629,270.677 63.195 C 270.677 62.802,271.019 62.404,271.456 62.290 C 271.885 62.178,272.328 61.735,272.440 61.306 C 272.575 60.792,272.950 60.526,273.540 60.526 C 274.245 60.526,274.436 60.326,274.436 59.586 C 274.436 58.835,274.624 58.647,275.376 58.647 C 276.282 58.647,276.316 58.558,276.316 56.216 C 276.316 53.143,276.091 53.008,270.979 53.008 C 267.312 53.008,267.075 52.960,266.724 52.162 C 266.313 51.224,266.294 51.221,259.721 51.163 C 255.882 51.129,255.712 51.093,255.505 50.269 C 255.293 49.426,255.187 49.409,249.169 49.300 C 242.379 49.177,242.717 49.256,242.528 47.744 C 242.502 47.538,242.354 47.388,242.199 47.413 C 242.044 47.437,239.197 47.437,235.872 47.413 L 229.826 47.368 229.317 46.417 C 229.037 45.893,228.543 45.490,228.220 45.520 C 223.502 45.962,213.068 45.415,212.885 44.716 C 212.765 44.257,212.474 44.023,212.169 44.140 C 211.886 44.248,211.654 44.188,211.654 44.006 C 211.654 43.823,207.012 43.655,201.324 43.632 L 190.994 43.591 190.064 42.662 C 189.173 41.770,178.863 41.328,174.906 42.011 " stroke="none" fill="#b4dc04" fill-rule="evenodd"></path><path id="path4" d="M280.425 60.919 C 280.197 61.059,280.025 61.282,280.043 61.414 C 280.150 62.216,279.977 62.406,279.135 62.406 C 278.391 62.406,278.195 62.596,278.195 63.320 C 278.195 63.981,277.962 64.267,277.350 64.354 C 276.806 64.431,276.461 64.776,276.384 65.320 C 276.297 65.932,276.011 66.165,275.350 66.165 C 274.626 66.165,274.436 66.361,274.436 67.105 C 274.436 67.857,274.248 68.045,273.496 68.045 C 272.752 68.045,272.556 68.235,272.556 68.959 C 272.556 69.620,272.323 69.906,271.711 69.993 C 271.175 70.069,270.822 70.415,270.748 70.936 C 270.675 71.448,270.320 71.802,269.808 71.875 C 269.287 71.949,268.941 72.303,268.865 72.838 C 268.778 73.451,268.492 73.684,267.831 73.684 C 267.107 73.684,266.917 73.879,266.917 74.624 C 266.917 75.369,266.728 75.564,266.004 75.564 C 265.342 75.564,265.057 75.798,264.970 76.410 C 264.904 76.875,264.638 77.277,264.380 77.303 C 264.121 77.328,263.741 77.371,263.534 77.397 C 263.327 77.422,263.158 77.782,263.158 78.195 C 263.158 78.867,262.770 79.121,261.943 78.994 C 261.791 78.971,261.561 79.375,261.431 79.893 C 261.288 80.462,260.840 80.923,260.297 81.059 C 259.771 81.191,259.398 81.562,259.398 81.953 C 259.398 82.564,258.580 82.900,256.485 83.152 C 256.227 83.183,256.094 83.287,256.190 83.383 C 256.575 83.768,255.564 84.962,254.852 84.962 C 254.433 84.962,254.187 85.118,254.305 85.308 C 254.581 85.756,253.495 86.842,252.771 86.842 C 252.463 86.842,252.307 86.998,252.425 87.188 C 252.702 87.635,251.615 88.722,250.891 88.722 C 250.583 88.722,250.427 88.876,250.543 89.064 C 250.898 89.638,250.347 90.567,249.781 90.350 C 249.488 90.237,249.248 90.342,249.248 90.583 C 249.248 90.825,249.098 90.929,248.915 90.816 C 248.731 90.702,248.604 90.904,248.633 91.263 C 248.668 91.714,248.362 91.954,247.650 92.036 C 246.838 92.130,246.617 92.351,246.617 93.070 C 246.617 93.795,246.422 93.985,245.677 93.985 C 244.925 93.985,244.737 94.173,244.737 94.925 C 244.737 95.677,244.549 95.865,243.797 95.865 C 243.045 95.865,242.857 96.053,242.857 96.805 C 242.857 97.556,242.669 97.744,241.917 97.744 C 241.165 97.744,240.977 97.932,240.977 98.684 C 240.977 99.436,240.789 99.624,240.038 99.624 C 239.293 99.624,239.098 99.814,239.098 100.538 C 239.098 101.199,238.864 101.485,238.252 101.572 C 237.717 101.648,237.363 101.994,237.289 102.514 C 237.216 103.027,236.862 103.381,236.349 103.454 L 235.526 103.571 235.429 124.906 C 235.366 138.695,235.200 146.241,234.959 146.241 C 234.754 146.241,234.475 146.225,234.338 146.207 C 233.487 146.091,233.251 165.028,234.023 171.506 C 234.192 172.932,234.086 174.509,233.707 176.205 C 233.392 177.610,232.934 181.128,232.689 184.023 C 232.444 186.917,232.100 189.559,231.925 189.894 C 231.749 190.228,231.416 192.089,231.185 194.029 C 230.953 195.969,230.354 199.671,229.854 202.256 C 229.353 204.840,228.945 207.478,228.946 208.117 C 228.954 213.789,223.266 222.104,218.421 223.505 C 217.113 223.883,216.541 224.408,216.541 225.234 C 216.541 225.893,216.915 225.940,222.180 225.940 C 227.516 225.940,227.820 225.900,227.820 225.209 C 227.820 224.603,228.126 224.458,229.605 224.363 C 231.113 224.266,231.409 224.120,231.508 223.425 C 231.581 222.913,231.935 222.558,232.448 222.486 C 232.960 222.413,233.315 222.058,233.388 221.546 C 233.461 221.033,233.815 220.679,234.328 220.606 C 234.840 220.533,235.195 220.179,235.267 219.666 C 235.340 219.153,235.695 218.799,236.207 218.726 C 236.720 218.653,237.074 218.299,237.147 217.786 C 237.220 217.274,237.574 216.919,238.087 216.846 C 238.600 216.773,238.954 216.419,239.027 215.907 C 239.100 215.394,239.454 215.040,239.967 214.967 C 240.487 214.893,240.834 214.539,240.910 214.004 C 240.997 213.392,241.282 213.158,241.943 213.158 C 242.660 213.158,242.857 212.961,242.857 212.244 C 242.857 211.583,243.091 211.297,243.703 211.210 C 244.238 211.134,244.592 210.788,244.666 210.267 C 244.739 209.755,245.093 209.401,245.606 209.328 C 246.119 209.255,246.473 208.900,246.546 208.386 C 246.638 207.739,246.954 207.537,248.012 207.446 C 248.890 207.371,249.504 207.069,249.774 206.579 C 250.281 205.659,250.809 205.254,251.193 205.491 C 251.352 205.590,251.590 205.240,251.721 204.715 C 251.853 204.189,252.112 203.738,252.296 203.712 C 252.481 203.687,252.843 203.644,253.102 203.618 C 253.360 203.593,253.623 203.207,253.687 202.761 C 253.757 202.267,254.162 201.860,254.721 201.720 C 255.284 201.579,255.639 201.218,255.639 200.789 C 255.639 200.396,255.982 199.998,256.419 199.884 C 256.848 199.772,257.286 199.345,257.393 198.935 C 257.501 198.525,257.924 198.102,258.333 197.995 C 258.743 197.888,259.170 197.449,259.282 197.020 C 259.417 196.506,259.792 196.241,260.382 196.241 C 261.087 196.241,261.278 196.040,261.278 195.301 C 261.278 194.549,261.466 194.361,262.218 194.361 C 262.970 194.361,263.158 194.173,263.158 193.421 C 263.158 192.669,263.346 192.481,264.098 192.481 C 264.850 192.481,265.038 192.293,265.038 191.541 C 265.038 190.789,265.226 190.602,265.977 190.602 C 266.729 190.602,266.917 190.414,266.917 189.662 C 266.917 188.910,267.105 188.722,267.857 188.722 C 268.535 188.722,268.797 188.520,268.797 187.996 C 268.797 187.530,269.099 187.227,269.643 187.150 C 270.178 187.074,270.532 186.728,270.606 186.207 C 270.679 185.695,271.033 185.340,271.546 185.267 C 272.058 185.195,272.413 184.840,272.486 184.328 C 272.558 183.815,272.913 183.461,273.425 183.388 C 273.938 183.315,274.292 182.960,274.365 182.448 C 274.438 181.935,274.793 181.581,275.305 181.508 C 275.818 181.435,276.172 181.081,276.245 180.568 C 276.318 180.056,276.672 179.701,277.185 179.628 C 277.697 179.555,278.052 179.201,278.125 178.689 C 278.198 178.176,278.552 177.822,279.064 177.749 C 279.577 177.676,279.931 177.321,280.004 176.809 C 280.077 176.296,280.432 175.942,280.944 175.869 C 281.457 175.796,281.811 175.442,281.884 174.929 C 281.957 174.417,282.311 174.062,282.824 173.989 C 283.336 173.916,283.691 173.562,283.764 173.049 C 283.837 172.537,284.191 172.183,284.704 172.110 C 285.224 172.035,285.570 171.682,285.646 171.147 C 285.723 170.606,286.026 170.301,286.485 170.301 C 286.938 170.301,287.291 169.953,287.440 169.361 C 287.581 168.798,287.944 168.421,288.346 168.421 C 289.138 168.421,289.474 167.697,289.474 165.991 C 289.474 165.066,289.665 164.699,290.226 164.553 C 290.963 164.360,290.977 164.040,290.977 147.932 C 290.977 131.825,290.963 131.505,290.226 131.312 C 289.492 131.120,289.473 130.781,289.430 117.155 C 289.406 109.477,289.348 103.026,289.300 102.820 C 289.252 102.613,289.186 102.232,289.155 101.974 C 289.124 101.715,288.759 101.504,288.346 101.504 C 287.617 101.504,287.593 101.239,287.551 92.763 C 287.527 87.956,287.468 83.853,287.420 83.647 C 287.372 83.440,287.307 82.795,287.275 82.215 C 287.244 81.634,287.083 81.242,286.918 81.344 C 285.944 81.946,285.741 80.744,285.697 74.090 C 285.647 66.549,285.592 66.165,284.546 66.165 C 283.957 66.165,283.835 65.884,283.835 64.530 C 283.835 61.236,282.389 59.705,280.425 60.919 M163.534 97.744 C 163.224 97.945,160.499 98.111,157.479 98.115 C 150.374 98.122,142.646 98.753,141.603 99.410 C 141.045 99.761,138.960 99.979,134.962 100.102 C 130.991 100.225,128.588 100.474,127.417 100.885 C 126.472 101.216,124.570 101.648,123.190 101.843 C 121.660 102.060,120.293 102.503,119.688 102.979 C 119.142 103.408,118.428 103.759,118.102 103.759 C 117.775 103.759,117.163 104.090,116.743 104.493 C 116.322 104.897,115.258 105.912,114.380 106.749 C 113.501 107.586,112.782 108.524,112.782 108.835 C 112.782 109.185,112.391 109.420,111.748 109.456 C 111.180 109.487,110.545 109.552,110.338 109.600 C 110.132 109.648,109.751 109.707,109.492 109.731 C 109.185 109.759,109.023 110.424,109.023 111.654 C 109.023 114.183,110.439 114.412,111.630 112.076 C 112.039 111.275,112.635 110.519,112.954 110.397 C 113.273 110.274,113.534 109.942,113.534 109.658 C 113.534 108.805,118.076 104.908,119.526 104.516 C 120.262 104.317,121.247 103.885,121.715 103.556 C 122.232 103.193,124.002 102.819,126.226 102.604 C 128.240 102.409,130.987 101.995,132.331 101.684 C 133.675 101.374,137.312 100.943,140.414 100.726 C 143.515 100.510,147.152 100.173,148.496 99.977 C 155.654 98.937,164.522 98.570,165.814 99.261 C 166.693 99.732,166.746 99.332,165.956 98.204 C 165.333 97.315,164.456 97.149,163.534 97.744 " stroke="none" fill="#74bc2b" fill-rule="evenodd"></path></g></svg>